<mxfile host="app.diagrams.net" modified="2023-10-17T03:48:22.187Z" agent="Mozilla/5.0 (Windows NT 10.0; Win64; x64) AppleWebKit/537.36 (KHTML, like Gecko) Chrome/117.0.0.0 Safari/537.36" etag="qu_V-qGpA-pv2ixDMaon" version="22.0.4" type="github">
  <diagram id="C5RBs43oDa-KdzZeNtuy" name="Page-1">
    <mxGraphModel dx="5505" dy="2817" grid="1" gridSize="10" guides="1" tooltips="1" connect="1" arrows="1" fold="1" page="1" pageScale="1" pageWidth="827" pageHeight="1169" math="0" shadow="0">
      <root>
        <mxCell id="WIyWlLk6GJQsqaUBKTNV-0" />
        <mxCell id="WIyWlLk6GJQsqaUBKTNV-1" parent="WIyWlLk6GJQsqaUBKTNV-0" />
        <mxCell id="WIyWlLk6GJQsqaUBKTNV-4" value="Yes" style="rounded=0;html=1;jettySize=auto;orthogonalLoop=1;fontSize=11;endArrow=block;endFill=0;endSize=8;strokeWidth=1;shadow=0;labelBackgroundColor=none;edgeStyle=orthogonalEdgeStyle;" parent="WIyWlLk6GJQsqaUBKTNV-1" source="WIyWlLk6GJQsqaUBKTNV-6" target="WIyWlLk6GJQsqaUBKTNV-10" edge="1">
          <mxGeometry y="20" relative="1" as="geometry">
            <mxPoint as="offset" />
          </mxGeometry>
        </mxCell>
        <mxCell id="WIyWlLk6GJQsqaUBKTNV-5" value="" style="edgeStyle=orthogonalEdgeStyle;rounded=0;html=1;jettySize=auto;orthogonalLoop=1;fontSize=11;endArrow=block;endFill=0;endSize=8;strokeWidth=1;shadow=0;labelBackgroundColor=none;entryX=0.5;entryY=0;entryDx=0;entryDy=0;" parent="WIyWlLk6GJQsqaUBKTNV-1" edge="1">
          <mxGeometry y="10" relative="1" as="geometry">
            <mxPoint as="offset" />
            <mxPoint x="-890.0049673202611" y="-304.9411764705883" as="sourcePoint" />
            <mxPoint x="-755.9200000000001" y="-270" as="targetPoint" />
          </mxGeometry>
        </mxCell>
        <mxCell id="6m6GTqiiXeicWxR2e0hD-82" value="Yes&lt;br&gt;" style="edgeLabel;html=1;align=center;verticalAlign=middle;resizable=0;points=[];fontSize=11;fontFamily=Helvetica;fontColor=default;" parent="WIyWlLk6GJQsqaUBKTNV-5" vertex="1" connectable="0">
          <mxGeometry x="-0.8315" y="4" relative="1" as="geometry">
            <mxPoint as="offset" />
          </mxGeometry>
        </mxCell>
        <mxCell id="WIyWlLk6GJQsqaUBKTNV-6" value="do click register?" style="rhombus;whiteSpace=wrap;html=1;shadow=0;fontFamily=Helvetica;fontSize=12;align=center;strokeWidth=1;spacing=6;spacingTop=-4;" parent="WIyWlLk6GJQsqaUBKTNV-1" vertex="1">
          <mxGeometry x="-1020" y="-350" width="130" height="90" as="geometry" />
        </mxCell>
        <mxCell id="WIyWlLk6GJQsqaUBKTNV-8" value="" style="rounded=0;html=1;jettySize=auto;orthogonalLoop=1;fontSize=11;endArrow=block;endFill=0;endSize=8;strokeWidth=1;shadow=0;labelBackgroundColor=none;edgeStyle=orthogonalEdgeStyle;entryX=0.5;entryY=0;entryDx=0;entryDy=0;" parent="WIyWlLk6GJQsqaUBKTNV-1" target="6m6GTqiiXeicWxR2e0hD-80" edge="1">
          <mxGeometry x="0.3333" y="20" relative="1" as="geometry">
            <mxPoint as="offset" />
            <mxPoint x="-955" y="-130" as="sourcePoint" />
            <mxPoint x="-955" y="340" as="targetPoint" />
          </mxGeometry>
        </mxCell>
        <mxCell id="6m6GTqiiXeicWxR2e0hD-113" value="NO&lt;br&gt;" style="edgeLabel;html=1;align=center;verticalAlign=middle;resizable=0;points=[];fontSize=11;fontFamily=Helvetica;fontColor=default;" parent="WIyWlLk6GJQsqaUBKTNV-8" vertex="1" connectable="0">
          <mxGeometry x="-0.8768" y="5" relative="1" as="geometry">
            <mxPoint as="offset" />
          </mxGeometry>
        </mxCell>
        <mxCell id="6m6GTqiiXeicWxR2e0hD-43" style="edgeStyle=orthogonalEdgeStyle;rounded=0;orthogonalLoop=1;jettySize=auto;html=1;entryX=0.5;entryY=0;entryDx=0;entryDy=0;" parent="WIyWlLk6GJQsqaUBKTNV-1" source="WIyWlLk6GJQsqaUBKTNV-10" target="6m6GTqiiXeicWxR2e0hD-28" edge="1">
          <mxGeometry relative="1" as="geometry">
            <mxPoint x="-1330" y="-170" as="targetPoint" />
          </mxGeometry>
        </mxCell>
        <mxCell id="6m6GTqiiXeicWxR2e0hD-114" value="Yes&lt;br&gt;" style="edgeLabel;html=1;align=center;verticalAlign=middle;resizable=0;points=[];fontSize=11;fontFamily=Helvetica;fontColor=default;" parent="6m6GTqiiXeicWxR2e0hD-43" vertex="1" connectable="0">
          <mxGeometry x="-0.8407" y="-6" relative="1" as="geometry">
            <mxPoint x="-1" as="offset" />
          </mxGeometry>
        </mxCell>
        <mxCell id="WIyWlLk6GJQsqaUBKTNV-10" value="do click login" style="rhombus;whiteSpace=wrap;html=1;shadow=0;fontFamily=Helvetica;fontSize=12;align=center;strokeWidth=1;spacing=6;spacingTop=-4;" parent="WIyWlLk6GJQsqaUBKTNV-1" vertex="1">
          <mxGeometry x="-1005" y="-210" width="100" height="80" as="geometry" />
        </mxCell>
        <mxCell id="6m6GTqiiXeicWxR2e0hD-0" value="Start" style="ellipse;whiteSpace=wrap;html=1;" parent="WIyWlLk6GJQsqaUBKTNV-1" vertex="1">
          <mxGeometry x="-1015" y="-630" width="120" height="50" as="geometry" />
        </mxCell>
        <mxCell id="6m6GTqiiXeicWxR2e0hD-12" value="Display Login&lt;br&gt;and&lt;br&gt;Register Buttons" style="shape=parallelogram;perimeter=parallelogramPerimeter;whiteSpace=wrap;html=1;fixedSize=1;" parent="WIyWlLk6GJQsqaUBKTNV-1" vertex="1">
          <mxGeometry x="-1020" y="-550" width="130" height="60" as="geometry" />
        </mxCell>
        <mxCell id="6m6GTqiiXeicWxR2e0hD-21" value="" style="endArrow=classic;html=1;rounded=0;entryX=0.5;entryY=0;entryDx=0;entryDy=0;" parent="WIyWlLk6GJQsqaUBKTNV-1" source="6m6GTqiiXeicWxR2e0hD-0" target="6m6GTqiiXeicWxR2e0hD-12" edge="1">
          <mxGeometry width="50" height="50" relative="1" as="geometry">
            <mxPoint x="-970" y="-560" as="sourcePoint" />
            <mxPoint x="-920" y="-610" as="targetPoint" />
          </mxGeometry>
        </mxCell>
        <mxCell id="6m6GTqiiXeicWxR2e0hD-24" value="" style="endArrow=classic;html=1;rounded=0;entryX=0.5;entryY=0;entryDx=0;entryDy=0;exitX=0.5;exitY=1;exitDx=0;exitDy=0;" parent="WIyWlLk6GJQsqaUBKTNV-1" source="6m6GTqiiXeicWxR2e0hD-12" target="WIyWlLk6GJQsqaUBKTNV-6" edge="1">
          <mxGeometry width="50" height="50" relative="1" as="geometry">
            <mxPoint x="-960" y="-440" as="sourcePoint" />
            <mxPoint x="-910" y="-490" as="targetPoint" />
          </mxGeometry>
        </mxCell>
        <mxCell id="6m6GTqiiXeicWxR2e0hD-26" value="user clicks one of the buttons" style="rounded=1;whiteSpace=wrap;html=1;" parent="WIyWlLk6GJQsqaUBKTNV-1" vertex="1">
          <mxGeometry x="-1020" y="-455" width="120" height="60" as="geometry" />
        </mxCell>
        <mxCell id="6m6GTqiiXeicWxR2e0hD-28" value="&quot;display forgot password button, input email &amp;amp; password&quot;" style="shape=parallelogram;perimeter=parallelogramPerimeter;whiteSpace=wrap;html=1;fixedSize=1;" parent="WIyWlLk6GJQsqaUBKTNV-1" vertex="1">
          <mxGeometry x="-1380" y="-140" width="120" height="60" as="geometry" />
        </mxCell>
        <mxCell id="6m6GTqiiXeicWxR2e0hD-38" style="edgeStyle=orthogonalEdgeStyle;rounded=0;orthogonalLoop=1;jettySize=auto;html=1;entryX=0;entryY=0.5;entryDx=0;entryDy=0;" parent="WIyWlLk6GJQsqaUBKTNV-1" source="6m6GTqiiXeicWxR2e0hD-32" target="6m6GTqiiXeicWxR2e0hD-39" edge="1">
          <mxGeometry relative="1" as="geometry">
            <mxPoint x="-1195" y="10" as="targetPoint" />
          </mxGeometry>
        </mxCell>
        <mxCell id="6m6GTqiiXeicWxR2e0hD-44" value="No" style="edgeLabel;html=1;align=center;verticalAlign=middle;resizable=0;points=[];" parent="6m6GTqiiXeicWxR2e0hD-38" vertex="1" connectable="0">
          <mxGeometry x="-0.3714" y="1" relative="1" as="geometry">
            <mxPoint as="offset" />
          </mxGeometry>
        </mxCell>
        <mxCell id="6m6GTqiiXeicWxR2e0hD-32" value="whether the email is registered" style="rhombus;whiteSpace=wrap;html=1;" parent="WIyWlLk6GJQsqaUBKTNV-1" vertex="1">
          <mxGeometry x="-1390" y="80" width="140" height="120" as="geometry" />
        </mxCell>
        <mxCell id="6m6GTqiiXeicWxR2e0hD-39" value="Show &quot;Unregistered&quot;" style="shape=parallelogram;perimeter=parallelogramPerimeter;whiteSpace=wrap;html=1;fixedSize=1;" parent="WIyWlLk6GJQsqaUBKTNV-1" vertex="1">
          <mxGeometry x="-1220" y="110" width="130" height="60" as="geometry" />
        </mxCell>
        <mxCell id="6m6GTqiiXeicWxR2e0hD-46" value="" style="endArrow=classic;html=1;rounded=0;exitX=0.5;exitY=1;exitDx=0;exitDy=0;entryX=0.5;entryY=0;entryDx=0;entryDy=0;" parent="WIyWlLk6GJQsqaUBKTNV-1" source="6m6GTqiiXeicWxR2e0hD-32" target="6m6GTqiiXeicWxR2e0hD-47" edge="1">
          <mxGeometry width="50" height="50" relative="1" as="geometry">
            <mxPoint x="-1330" y="110" as="sourcePoint" />
            <mxPoint x="-1320" y="120" as="targetPoint" />
          </mxGeometry>
        </mxCell>
        <mxCell id="6m6GTqiiXeicWxR2e0hD-48" value="Yes&lt;br&gt;" style="edgeLabel;html=1;align=center;verticalAlign=middle;resizable=0;points=[];" parent="6m6GTqiiXeicWxR2e0hD-46" vertex="1" connectable="0">
          <mxGeometry y="2" relative="1" as="geometry">
            <mxPoint as="offset" />
          </mxGeometry>
        </mxCell>
        <mxCell id="6m6GTqiiXeicWxR2e0hD-47" value="Is the email &amp;amp; password correct?" style="rhombus;whiteSpace=wrap;html=1;" parent="WIyWlLk6GJQsqaUBKTNV-1" vertex="1">
          <mxGeometry x="-1400" y="240" width="160" height="120" as="geometry" />
        </mxCell>
        <mxCell id="6m6GTqiiXeicWxR2e0hD-49" value="" style="endArrow=classic;html=1;rounded=0;exitX=0.5;exitY=1;exitDx=0;exitDy=0;entryX=0.586;entryY=-0.024;entryDx=0;entryDy=0;entryPerimeter=0;" parent="WIyWlLk6GJQsqaUBKTNV-1" source="6m6GTqiiXeicWxR2e0hD-47" target="6m6GTqiiXeicWxR2e0hD-55" edge="1">
          <mxGeometry width="50" height="50" relative="1" as="geometry">
            <mxPoint x="-1330" y="270" as="sourcePoint" />
            <mxPoint x="-1320" y="260" as="targetPoint" />
          </mxGeometry>
        </mxCell>
        <mxCell id="6m6GTqiiXeicWxR2e0hD-63" value="yes&lt;br&gt;" style="edgeLabel;html=1;align=center;verticalAlign=middle;resizable=0;points=[];" parent="6m6GTqiiXeicWxR2e0hD-49" vertex="1" connectable="0">
          <mxGeometry x="-0.4906" y="3" relative="1" as="geometry">
            <mxPoint as="offset" />
          </mxGeometry>
        </mxCell>
        <mxCell id="6m6GTqiiXeicWxR2e0hD-51" value="" style="endArrow=classic;html=1;rounded=0;entryX=0;entryY=0.5;entryDx=0;entryDy=0;" parent="WIyWlLk6GJQsqaUBKTNV-1" source="6m6GTqiiXeicWxR2e0hD-47" target="6m6GTqiiXeicWxR2e0hD-53" edge="1">
          <mxGeometry width="50" height="50" relative="1" as="geometry">
            <mxPoint x="-1240" y="220" as="sourcePoint" />
            <mxPoint x="-1185" y="170" as="targetPoint" />
          </mxGeometry>
        </mxCell>
        <mxCell id="6m6GTqiiXeicWxR2e0hD-54" value="No" style="edgeLabel;html=1;align=center;verticalAlign=middle;resizable=0;points=[];" parent="6m6GTqiiXeicWxR2e0hD-51" vertex="1" connectable="0">
          <mxGeometry x="-0.36" y="3" relative="1" as="geometry">
            <mxPoint as="offset" />
          </mxGeometry>
        </mxCell>
        <mxCell id="6m6GTqiiXeicWxR2e0hD-53" value="show wrong email/password?" style="shape=parallelogram;perimeter=parallelogramPerimeter;whiteSpace=wrap;html=1;fixedSize=1;" parent="WIyWlLk6GJQsqaUBKTNV-1" vertex="1">
          <mxGeometry x="-1215" y="270" width="120" height="60" as="geometry" />
        </mxCell>
        <mxCell id="6m6GTqiiXeicWxR2e0hD-55" value="show &quot;You&#39;ve Logged In Successfully&quot;" style="shape=parallelogram;perimeter=parallelogramPerimeter;whiteSpace=wrap;html=1;fixedSize=1;" parent="WIyWlLk6GJQsqaUBKTNV-1" vertex="1">
          <mxGeometry x="-1430" y="390" width="190" height="60" as="geometry" />
        </mxCell>
        <mxCell id="6m6GTqiiXeicWxR2e0hD-79" value="" style="endArrow=none;html=1;rounded=0;shadow=0;labelBackgroundColor=none;strokeColor=default;strokeWidth=1;align=center;verticalAlign=middle;fontFamily=Helvetica;fontSize=11;fontColor=default;endSize=8;shape=connector;exitX=1;exitY=0.5;exitDx=0;exitDy=0;" parent="WIyWlLk6GJQsqaUBKTNV-1" source="6m6GTqiiXeicWxR2e0hD-53" edge="1">
          <mxGeometry width="50" height="50" relative="1" as="geometry">
            <mxPoint x="-1090" y="210" as="sourcePoint" />
            <mxPoint x="-1040" y="300" as="targetPoint" />
          </mxGeometry>
        </mxCell>
        <mxCell id="6m6GTqiiXeicWxR2e0hD-80" value="Login&lt;br&gt;" style="rounded=1;whiteSpace=wrap;html=1;fontFamily=Helvetica;fontSize=11;fontColor=default;" parent="WIyWlLk6GJQsqaUBKTNV-1" vertex="1">
          <mxGeometry x="-1015" y="450" width="120" height="60" as="geometry" />
        </mxCell>
        <mxCell id="6m6GTqiiXeicWxR2e0hD-81" value="Input Email,&lt;br&gt;Password 1&lt;br&gt;Password 2" style="shape=parallelogram;perimeter=parallelogramPerimeter;whiteSpace=wrap;html=1;fixedSize=1;fontFamily=Helvetica;fontSize=11;fontColor=default;" parent="WIyWlLk6GJQsqaUBKTNV-1" vertex="1">
          <mxGeometry x="-816" y="-270" width="120" height="60" as="geometry" />
        </mxCell>
        <mxCell id="6m6GTqiiXeicWxR2e0hD-83" value="" style="endArrow=classic;html=1;rounded=0;shadow=0;labelBackgroundColor=none;strokeColor=default;strokeWidth=1;align=center;verticalAlign=middle;fontFamily=Helvetica;fontSize=11;fontColor=default;endSize=8;shape=connector;exitX=0.5;exitY=1;exitDx=0;exitDy=0;entryX=0.5;entryY=0;entryDx=0;entryDy=0;" parent="WIyWlLk6GJQsqaUBKTNV-1" source="6m6GTqiiXeicWxR2e0hD-81" target="6m6GTqiiXeicWxR2e0hD-85" edge="1">
          <mxGeometry width="50" height="50" relative="1" as="geometry">
            <mxPoint x="-746" y="-150" as="sourcePoint" />
            <mxPoint x="-743" y="-150" as="targetPoint" />
          </mxGeometry>
        </mxCell>
        <mxCell id="6m6GTqiiXeicWxR2e0hD-101" value="No" style="edgeLabel;html=1;align=center;verticalAlign=middle;resizable=0;points=[];fontSize=11;fontFamily=Helvetica;fontColor=default;" parent="6m6GTqiiXeicWxR2e0hD-83" vertex="1" connectable="0">
          <mxGeometry x="-0.2593" y="1" relative="1" as="geometry">
            <mxPoint as="offset" />
          </mxGeometry>
        </mxCell>
        <mxCell id="6m6GTqiiXeicWxR2e0hD-85" value="Is the email already registered?" style="rhombus;whiteSpace=wrap;html=1;fontFamily=Helvetica;fontSize=11;fontColor=default;" parent="WIyWlLk6GJQsqaUBKTNV-1" vertex="1">
          <mxGeometry x="-821" y="-165" width="130" height="110" as="geometry" />
        </mxCell>
        <mxCell id="6m6GTqiiXeicWxR2e0hD-86" value="" style="endArrow=classic;html=1;rounded=0;shadow=0;labelBackgroundColor=none;strokeColor=default;strokeWidth=1;align=center;verticalAlign=middle;fontFamily=Helvetica;fontSize=11;fontColor=default;endSize=8;shape=connector;exitX=1;exitY=0.5;exitDx=0;exitDy=0;entryX=0;entryY=0.5;entryDx=0;entryDy=0;" parent="WIyWlLk6GJQsqaUBKTNV-1" source="6m6GTqiiXeicWxR2e0hD-85" target="6m6GTqiiXeicWxR2e0hD-87" edge="1">
          <mxGeometry width="50" height="50" relative="1" as="geometry">
            <mxPoint x="-650" y="-90" as="sourcePoint" />
            <mxPoint x="-600" y="-140" as="targetPoint" />
          </mxGeometry>
        </mxCell>
        <mxCell id="6m6GTqiiXeicWxR2e0hD-88" value="Yes&lt;br&gt;" style="edgeLabel;html=1;align=center;verticalAlign=middle;resizable=0;points=[];fontSize=11;fontFamily=Helvetica;fontColor=default;" parent="6m6GTqiiXeicWxR2e0hD-86" vertex="1" connectable="0">
          <mxGeometry x="-0.1512" y="3" relative="1" as="geometry">
            <mxPoint as="offset" />
          </mxGeometry>
        </mxCell>
        <mxCell id="6m6GTqiiXeicWxR2e0hD-87" value="&lt;div&gt;Show&amp;nbsp;&lt;/div&gt;&lt;div&gt;&quot;Already Registered. Please Login&quot;&lt;/div&gt;" style="shape=parallelogram;perimeter=parallelogramPerimeter;whiteSpace=wrap;html=1;fixedSize=1;fontFamily=Helvetica;fontSize=11;fontColor=default;" parent="WIyWlLk6GJQsqaUBKTNV-1" vertex="1">
          <mxGeometry x="-590" y="-140" width="120" height="60" as="geometry" />
        </mxCell>
        <mxCell id="6m6GTqiiXeicWxR2e0hD-89" value="" style="endArrow=classic;html=1;rounded=0;shadow=0;labelBackgroundColor=none;strokeColor=default;strokeWidth=1;align=center;verticalAlign=middle;fontFamily=Helvetica;fontSize=11;fontColor=default;endSize=8;shape=connector;exitX=0.5;exitY=1;exitDx=0;exitDy=0;entryX=0.5;entryY=0;entryDx=0;entryDy=0;" parent="WIyWlLk6GJQsqaUBKTNV-1" source="6m6GTqiiXeicWxR2e0hD-85" target="6m6GTqiiXeicWxR2e0hD-90" edge="1">
          <mxGeometry width="50" height="50" relative="1" as="geometry">
            <mxPoint x="-780" y="10" as="sourcePoint" />
            <mxPoint x="-780" y="50" as="targetPoint" />
          </mxGeometry>
        </mxCell>
        <mxCell id="6m6GTqiiXeicWxR2e0hD-102" value="No" style="edgeLabel;html=1;align=center;verticalAlign=middle;resizable=0;points=[];fontSize=11;fontFamily=Helvetica;fontColor=default;" parent="6m6GTqiiXeicWxR2e0hD-89" vertex="1" connectable="0">
          <mxGeometry x="-0.2704" relative="1" as="geometry">
            <mxPoint as="offset" />
          </mxGeometry>
        </mxCell>
        <mxCell id="6m6GTqiiXeicWxR2e0hD-90" value="Is password 1 &amp;amp; password 2 the same?" style="rhombus;whiteSpace=wrap;html=1;fontFamily=Helvetica;fontSize=11;fontColor=default;" parent="WIyWlLk6GJQsqaUBKTNV-1" vertex="1">
          <mxGeometry x="-810" y="-20" width="110" height="110" as="geometry" />
        </mxCell>
        <mxCell id="6m6GTqiiXeicWxR2e0hD-91" value="" style="endArrow=classic;html=1;rounded=0;shadow=0;labelBackgroundColor=none;strokeColor=default;strokeWidth=1;align=center;verticalAlign=middle;fontFamily=Helvetica;fontSize=11;fontColor=default;endSize=8;shape=connector;" parent="WIyWlLk6GJQsqaUBKTNV-1" source="6m6GTqiiXeicWxR2e0hD-90" target="6m6GTqiiXeicWxR2e0hD-92" edge="1">
          <mxGeometry width="50" height="50" relative="1" as="geometry">
            <mxPoint x="-699" y="35" as="sourcePoint" />
            <mxPoint x="-599" y="30" as="targetPoint" />
          </mxGeometry>
        </mxCell>
        <mxCell id="6m6GTqiiXeicWxR2e0hD-98" value="Yes&lt;br&gt;" style="edgeLabel;html=1;align=center;verticalAlign=middle;resizable=0;points=[];fontSize=11;fontFamily=Helvetica;fontColor=default;" parent="6m6GTqiiXeicWxR2e0hD-91" vertex="1" connectable="0">
          <mxGeometry x="-0.102" y="-2" relative="1" as="geometry">
            <mxPoint as="offset" />
          </mxGeometry>
        </mxCell>
        <mxCell id="6m6GTqiiXeicWxR2e0hD-92" value="&lt;div&gt;Show&lt;/div&gt;&lt;div&gt;&quot;You have successfully registered&quot;&lt;/div&gt;" style="shape=parallelogram;perimeter=parallelogramPerimeter;whiteSpace=wrap;html=1;fixedSize=1;fontFamily=Helvetica;fontSize=11;fontColor=default;" parent="WIyWlLk6GJQsqaUBKTNV-1" vertex="1">
          <mxGeometry x="-590" y="5" width="140" height="60" as="geometry" />
        </mxCell>
        <mxCell id="6m6GTqiiXeicWxR2e0hD-99" value="" style="endArrow=classic;html=1;rounded=0;shadow=0;labelBackgroundColor=none;strokeColor=default;strokeWidth=1;align=center;verticalAlign=middle;fontFamily=Helvetica;fontSize=11;fontColor=default;endSize=8;shape=connector;exitX=0.5;exitY=1;exitDx=0;exitDy=0;entryX=0.5;entryY=0;entryDx=0;entryDy=0;" parent="WIyWlLk6GJQsqaUBKTNV-1" source="6m6GTqiiXeicWxR2e0hD-90" target="6m6GTqiiXeicWxR2e0hD-100" edge="1">
          <mxGeometry width="50" height="50" relative="1" as="geometry">
            <mxPoint x="-790" y="160" as="sourcePoint" />
            <mxPoint x="-740" y="110" as="targetPoint" />
          </mxGeometry>
        </mxCell>
        <mxCell id="6m6GTqiiXeicWxR2e0hD-100" value="&lt;div&gt;Show&lt;/div&gt;&lt;div&gt;&quot;Password 1 and Password 2&amp;nbsp;&lt;/div&gt;&lt;div&gt;must be the same&quot;&lt;/div&gt;" style="shape=parallelogram;perimeter=parallelogramPerimeter;whiteSpace=wrap;html=1;fixedSize=1;fontFamily=Helvetica;fontSize=11;fontColor=default;" parent="WIyWlLk6GJQsqaUBKTNV-1" vertex="1">
          <mxGeometry x="-840" y="120" width="170" height="60" as="geometry" />
        </mxCell>
        <mxCell id="6m6GTqiiXeicWxR2e0hD-104" value="" style="endArrow=classic;html=1;rounded=0;shadow=0;labelBackgroundColor=none;strokeColor=default;strokeWidth=1;align=center;verticalAlign=middle;fontFamily=Helvetica;fontSize=11;fontColor=default;endSize=8;shape=connector;entryX=0.5;entryY=0;entryDx=0;entryDy=0;exitX=0.5;exitY=1;exitDx=0;exitDy=0;" parent="WIyWlLk6GJQsqaUBKTNV-1" source="6m6GTqiiXeicWxR2e0hD-100" target="6m6GTqiiXeicWxR2e0hD-105" edge="1">
          <mxGeometry width="50" height="50" relative="1" as="geometry">
            <mxPoint x="-770" y="180" as="sourcePoint" />
            <mxPoint x="-740" y="200" as="targetPoint" />
          </mxGeometry>
        </mxCell>
        <mxCell id="6m6GTqiiXeicWxR2e0hD-105" value="does the user want &lt;br&gt;to repeat?" style="rhombus;whiteSpace=wrap;html=1;fontFamily=Helvetica;fontSize=11;fontColor=default;" parent="WIyWlLk6GJQsqaUBKTNV-1" vertex="1">
          <mxGeometry x="-830" y="210" width="150" height="110" as="geometry" />
        </mxCell>
        <mxCell id="6m6GTqiiXeicWxR2e0hD-107" value="" style="endArrow=classic;html=1;rounded=0;shadow=0;labelBackgroundColor=none;strokeColor=default;strokeWidth=1;align=center;verticalAlign=middle;fontFamily=Helvetica;fontSize=11;fontColor=default;endSize=8;shape=connector;exitX=0;exitY=0.5;exitDx=0;exitDy=0;entryX=0;entryY=0.25;entryDx=0;entryDy=0;" parent="WIyWlLk6GJQsqaUBKTNV-1" source="6m6GTqiiXeicWxR2e0hD-105" target="6m6GTqiiXeicWxR2e0hD-81" edge="1">
          <mxGeometry width="50" height="50" relative="1" as="geometry">
            <mxPoint x="-890" y="290" as="sourcePoint" />
            <mxPoint x="-900" y="-180" as="targetPoint" />
            <Array as="points">
              <mxPoint x="-890" y="265" />
              <mxPoint x="-890" y="-10" />
              <mxPoint x="-890" y="-252" />
            </Array>
          </mxGeometry>
        </mxCell>
        <mxCell id="6m6GTqiiXeicWxR2e0hD-112" value="Yes&lt;br&gt;" style="edgeLabel;html=1;align=center;verticalAlign=middle;resizable=0;points=[];fontSize=11;fontFamily=Helvetica;fontColor=default;" parent="6m6GTqiiXeicWxR2e0hD-107" vertex="1" connectable="0">
          <mxGeometry x="-0.9017" y="1" relative="1" as="geometry">
            <mxPoint x="1" as="offset" />
          </mxGeometry>
        </mxCell>
        <mxCell id="6m6GTqiiXeicWxR2e0hD-108" value="" style="endArrow=classic;html=1;rounded=0;shadow=0;labelBackgroundColor=none;strokeColor=default;strokeWidth=1;align=center;verticalAlign=middle;fontFamily=Helvetica;fontSize=11;fontColor=default;endSize=8;shape=connector;" parent="WIyWlLk6GJQsqaUBKTNV-1" source="6m6GTqiiXeicWxR2e0hD-87" target="6m6GTqiiXeicWxR2e0hD-80" edge="1">
          <mxGeometry width="50" height="50" relative="1" as="geometry">
            <mxPoint x="-470" y="-60" as="sourcePoint" />
            <mxPoint x="-580" y="440" as="targetPoint" />
            <Array as="points">
              <mxPoint x="-400" y="-110" />
              <mxPoint x="-400" y="480" />
            </Array>
          </mxGeometry>
        </mxCell>
        <mxCell id="6m6GTqiiXeicWxR2e0hD-109" value="" style="endArrow=none;html=1;rounded=0;shadow=0;labelBackgroundColor=none;strokeColor=default;strokeWidth=1;align=center;verticalAlign=middle;fontFamily=Helvetica;fontSize=11;fontColor=default;endSize=8;shape=connector;" parent="WIyWlLk6GJQsqaUBKTNV-1" source="6m6GTqiiXeicWxR2e0hD-105" edge="1">
          <mxGeometry width="50" height="50" relative="1" as="geometry">
            <mxPoint x="-755" y="370" as="sourcePoint" />
            <mxPoint x="-755" y="480" as="targetPoint" />
          </mxGeometry>
        </mxCell>
        <mxCell id="6m6GTqiiXeicWxR2e0hD-111" value="No" style="edgeLabel;html=1;align=center;verticalAlign=middle;resizable=0;points=[];fontSize=11;fontFamily=Helvetica;fontColor=default;" parent="6m6GTqiiXeicWxR2e0hD-109" vertex="1" connectable="0">
          <mxGeometry x="-0.5333" y="1" relative="1" as="geometry">
            <mxPoint y="-1" as="offset" />
          </mxGeometry>
        </mxCell>
        <mxCell id="6m6GTqiiXeicWxR2e0hD-110" value="" style="endArrow=none;html=1;rounded=0;shadow=0;labelBackgroundColor=none;strokeColor=default;strokeWidth=1;align=center;verticalAlign=middle;fontFamily=Helvetica;fontSize=11;fontColor=default;endSize=8;shape=connector;" parent="WIyWlLk6GJQsqaUBKTNV-1" edge="1">
          <mxGeometry width="50" height="50" relative="1" as="geometry">
            <mxPoint x="-460" y="40" as="sourcePoint" />
            <mxPoint x="-400" y="40" as="targetPoint" />
          </mxGeometry>
        </mxCell>
        <mxCell id="xRXLO3KBdeDJqQUkD2Ri-1" value="&quot;do click forgot pasword ?&quot;" style="rhombus;whiteSpace=wrap;html=1;" parent="WIyWlLk6GJQsqaUBKTNV-1" vertex="1">
          <mxGeometry x="-1380" y="-40" width="120" height="80" as="geometry" />
        </mxCell>
        <mxCell id="xRXLO3KBdeDJqQUkD2Ri-3" value="" style="endArrow=classic;html=1;rounded=0;exitX=0.5;exitY=1;exitDx=0;exitDy=0;entryX=0.5;entryY=0;entryDx=0;entryDy=0;" parent="WIyWlLk6GJQsqaUBKTNV-1" source="xRXLO3KBdeDJqQUkD2Ri-1" target="6m6GTqiiXeicWxR2e0hD-32" edge="1">
          <mxGeometry width="50" height="50" relative="1" as="geometry">
            <mxPoint x="-1310" y="70" as="sourcePoint" />
            <mxPoint x="-1260" y="20" as="targetPoint" />
          </mxGeometry>
        </mxCell>
        <mxCell id="xRXLO3KBdeDJqQUkD2Ri-12" value="No" style="edgeLabel;html=1;align=center;verticalAlign=middle;resizable=0;points=[];" parent="xRXLO3KBdeDJqQUkD2Ri-3" vertex="1" connectable="0">
          <mxGeometry x="-0.4819" y="2" relative="1" as="geometry">
            <mxPoint as="offset" />
          </mxGeometry>
        </mxCell>
        <mxCell id="xRXLO3KBdeDJqQUkD2Ri-6" value="" style="endArrow=classic;html=1;rounded=0;exitX=0.5;exitY=1;exitDx=0;exitDy=0;entryX=0.5;entryY=0;entryDx=0;entryDy=0;" parent="WIyWlLk6GJQsqaUBKTNV-1" source="6m6GTqiiXeicWxR2e0hD-28" target="xRXLO3KBdeDJqQUkD2Ri-1" edge="1">
          <mxGeometry width="50" height="50" relative="1" as="geometry">
            <mxPoint x="-1270" y="-30" as="sourcePoint" />
            <mxPoint x="-1220" y="-80" as="targetPoint" />
          </mxGeometry>
        </mxCell>
        <mxCell id="xRXLO3KBdeDJqQUkD2Ri-8" value="" style="endArrow=classic;html=1;rounded=0;entryX=0;entryY=0.5;entryDx=0;entryDy=0;" parent="WIyWlLk6GJQsqaUBKTNV-1" target="6m6GTqiiXeicWxR2e0hD-80" edge="1">
          <mxGeometry width="50" height="50" relative="1" as="geometry">
            <mxPoint x="-1320" y="450" as="sourcePoint" />
            <mxPoint x="-1335" y="490" as="targetPoint" />
            <Array as="points">
              <mxPoint x="-1320" y="480" />
            </Array>
          </mxGeometry>
        </mxCell>
        <mxCell id="xRXLO3KBdeDJqQUkD2Ri-11" value="" style="endArrow=none;html=1;rounded=0;" parent="WIyWlLk6GJQsqaUBKTNV-1" source="6m6GTqiiXeicWxR2e0hD-39" edge="1">
          <mxGeometry width="50" height="50" relative="1" as="geometry">
            <mxPoint x="-1090" y="190" as="sourcePoint" />
            <mxPoint x="-1040" y="480" as="targetPoint" />
            <Array as="points">
              <mxPoint x="-1040" y="140" />
            </Array>
          </mxGeometry>
        </mxCell>
        <mxCell id="xRXLO3KBdeDJqQUkD2Ri-14" value="" style="endArrow=classic;html=1;rounded=0;exitX=0;exitY=0.5;exitDx=0;exitDy=0;entryX=0.414;entryY=1.006;entryDx=0;entryDy=0;entryPerimeter=0;" parent="WIyWlLk6GJQsqaUBKTNV-1" source="xRXLO3KBdeDJqQUkD2Ri-1" target="xRXLO3KBdeDJqQUkD2Ri-15" edge="1">
          <mxGeometry width="50" height="50" relative="1" as="geometry">
            <mxPoint x="-1410" as="sourcePoint" />
            <mxPoint x="-1440" y="-240" as="targetPoint" />
            <Array as="points">
              <mxPoint x="-1440" />
            </Array>
          </mxGeometry>
        </mxCell>
        <mxCell id="xRXLO3KBdeDJqQUkD2Ri-17" value="Yes" style="edgeLabel;html=1;align=center;verticalAlign=middle;resizable=0;points=[];" parent="xRXLO3KBdeDJqQUkD2Ri-14" vertex="1" connectable="0">
          <mxGeometry x="-0.7536" y="1" relative="1" as="geometry">
            <mxPoint as="offset" />
          </mxGeometry>
        </mxCell>
        <mxCell id="xRXLO3KBdeDJqQUkD2Ri-15" value="Input&lt;br&gt;Email" style="shape=parallelogram;perimeter=parallelogramPerimeter;whiteSpace=wrap;html=1;fixedSize=1;" parent="WIyWlLk6GJQsqaUBKTNV-1" vertex="1">
          <mxGeometry x="-1490" y="-300" width="120" height="60" as="geometry" />
        </mxCell>
        <mxCell id="xRXLO3KBdeDJqQUkD2Ri-19" value="&quot;send verification code to email&quot;" style="shape=parallelogram;perimeter=parallelogramPerimeter;whiteSpace=wrap;html=1;fixedSize=1;" parent="WIyWlLk6GJQsqaUBKTNV-1" vertex="1">
          <mxGeometry x="-1890" y="-300" width="170" height="60" as="geometry" />
        </mxCell>
        <mxCell id="xRXLO3KBdeDJqQUkD2Ri-20" value="&quot;is the email registered ?&quot;" style="rhombus;whiteSpace=wrap;html=1;" parent="WIyWlLk6GJQsqaUBKTNV-1" vertex="1">
          <mxGeometry x="-1650" y="-315" width="100" height="90" as="geometry" />
        </mxCell>
        <mxCell id="xRXLO3KBdeDJqQUkD2Ri-22" value="" style="endArrow=classic;html=1;rounded=0;entryX=1;entryY=0.5;entryDx=0;entryDy=0;" parent="WIyWlLk6GJQsqaUBKTNV-1" source="xRXLO3KBdeDJqQUkD2Ri-15" target="xRXLO3KBdeDJqQUkD2Ri-20" edge="1">
          <mxGeometry width="50" height="50" relative="1" as="geometry">
            <mxPoint x="-1560.7106781186549" y="-220" as="sourcePoint" />
            <mxPoint x="-1530" y="-270" as="targetPoint" />
          </mxGeometry>
        </mxCell>
        <mxCell id="xRXLO3KBdeDJqQUkD2Ri-23" value="" style="endArrow=classic;html=1;rounded=0;exitX=0;exitY=0.5;exitDx=0;exitDy=0;entryX=1;entryY=0.5;entryDx=0;entryDy=0;" parent="WIyWlLk6GJQsqaUBKTNV-1" source="xRXLO3KBdeDJqQUkD2Ri-20" target="xRXLO3KBdeDJqQUkD2Ri-19" edge="1">
          <mxGeometry width="50" height="50" relative="1" as="geometry">
            <mxPoint x="-1700" y="-270" as="sourcePoint" />
            <mxPoint x="-1650" y="-320" as="targetPoint" />
          </mxGeometry>
        </mxCell>
        <mxCell id="xRXLO3KBdeDJqQUkD2Ri-28" value="Yes&lt;br&gt;" style="edgeLabel;html=1;align=center;verticalAlign=middle;resizable=0;points=[];" parent="xRXLO3KBdeDJqQUkD2Ri-23" vertex="1" connectable="0">
          <mxGeometry x="-0.1085" y="-3" relative="1" as="geometry">
            <mxPoint as="offset" />
          </mxGeometry>
        </mxCell>
        <mxCell id="xRXLO3KBdeDJqQUkD2Ri-24" value="" style="endArrow=classic;html=1;rounded=0;entryX=0.5;entryY=0;entryDx=0;entryDy=0;exitX=0.5;exitY=0;exitDx=0;exitDy=0;" parent="WIyWlLk6GJQsqaUBKTNV-1" source="xRXLO3KBdeDJqQUkD2Ri-20" target="xRXLO3KBdeDJqQUkD2Ri-15" edge="1">
          <mxGeometry width="50" height="50" relative="1" as="geometry">
            <mxPoint x="-1600" y="-320" as="sourcePoint" />
            <mxPoint x="-1430" y="-360" as="targetPoint" />
            <Array as="points">
              <mxPoint x="-1600" y="-360" />
              <mxPoint x="-1430" y="-360" />
            </Array>
          </mxGeometry>
        </mxCell>
        <mxCell id="xRXLO3KBdeDJqQUkD2Ri-25" value="No" style="edgeLabel;html=1;align=center;verticalAlign=middle;resizable=0;points=[];" parent="xRXLO3KBdeDJqQUkD2Ri-24" vertex="1" connectable="0">
          <mxGeometry x="-0.8092" y="-2" relative="1" as="geometry">
            <mxPoint as="offset" />
          </mxGeometry>
        </mxCell>
        <mxCell id="xRXLO3KBdeDJqQUkD2Ri-30" value="" style="endArrow=classic;html=1;rounded=0;exitX=0;exitY=0.5;exitDx=0;exitDy=0;" parent="WIyWlLk6GJQsqaUBKTNV-1" source="xRXLO3KBdeDJqQUkD2Ri-19" target="xRXLO3KBdeDJqQUkD2Ri-31" edge="1">
          <mxGeometry width="50" height="50" relative="1" as="geometry">
            <mxPoint x="-1950" y="-260" as="sourcePoint" />
            <mxPoint x="-1960" y="-270" as="targetPoint" />
          </mxGeometry>
        </mxCell>
        <mxCell id="xRXLO3KBdeDJqQUkD2Ri-31" value="&quot;input verification code" style="shape=parallelogram;perimeter=parallelogramPerimeter;whiteSpace=wrap;html=1;fixedSize=1;" parent="WIyWlLk6GJQsqaUBKTNV-1" vertex="1">
          <mxGeometry x="-2080" y="-300" width="120" height="60" as="geometry" />
        </mxCell>
        <mxCell id="xRXLO3KBdeDJqQUkD2Ri-32" value="" style="endArrow=classic;html=1;rounded=0;exitX=0;exitY=0.5;exitDx=0;exitDy=0;entryX=1;entryY=0.5;entryDx=0;entryDy=0;" parent="WIyWlLk6GJQsqaUBKTNV-1" source="xRXLO3KBdeDJqQUkD2Ri-31" target="xRXLO3KBdeDJqQUkD2Ri-33" edge="1">
          <mxGeometry width="50" height="50" relative="1" as="geometry">
            <mxPoint x="-2160" y="-270" as="sourcePoint" />
            <mxPoint x="-2140" y="-270" as="targetPoint" />
          </mxGeometry>
        </mxCell>
        <mxCell id="xRXLO3KBdeDJqQUkD2Ri-33" value="&amp;nbsp;&quot;user entering verification code&quot;" style="rounded=1;whiteSpace=wrap;html=1;" parent="WIyWlLk6GJQsqaUBKTNV-1" vertex="1">
          <mxGeometry x="-2270" y="-300" width="120" height="60" as="geometry" />
        </mxCell>
        <mxCell id="xRXLO3KBdeDJqQUkD2Ri-34" value="" style="endArrow=classic;html=1;rounded=0;exitX=0.5;exitY=1;exitDx=0;exitDy=0;entryX=0.5;entryY=0;entryDx=0;entryDy=0;" parent="WIyWlLk6GJQsqaUBKTNV-1" source="xRXLO3KBdeDJqQUkD2Ri-33" target="xRXLO3KBdeDJqQUkD2Ri-35" edge="1">
          <mxGeometry width="50" height="50" relative="1" as="geometry">
            <mxPoint x="-2220" y="-170" as="sourcePoint" />
            <mxPoint x="-2210" y="-180" as="targetPoint" />
          </mxGeometry>
        </mxCell>
        <mxCell id="xRXLO3KBdeDJqQUkD2Ri-35" value="&quot;is the verification code correct ?&quot;" style="rhombus;whiteSpace=wrap;html=1;" parent="WIyWlLk6GJQsqaUBKTNV-1" vertex="1">
          <mxGeometry x="-2285" y="-185" width="150" height="130" as="geometry" />
        </mxCell>
        <mxCell id="xRXLO3KBdeDJqQUkD2Ri-37" value="" style="endArrow=classic;html=1;rounded=0;exitX=0;exitY=0.5;exitDx=0;exitDy=0;entryX=0;entryY=0.5;entryDx=0;entryDy=0;" parent="WIyWlLk6GJQsqaUBKTNV-1" source="xRXLO3KBdeDJqQUkD2Ri-35" target="xRXLO3KBdeDJqQUkD2Ri-33" edge="1">
          <mxGeometry width="50" height="50" relative="1" as="geometry">
            <mxPoint x="-2380" y="-130" as="sourcePoint" />
            <mxPoint x="-2360" y="-270" as="targetPoint" />
            <Array as="points">
              <mxPoint x="-2360" y="-120" />
              <mxPoint x="-2360" y="-270" />
            </Array>
          </mxGeometry>
        </mxCell>
        <mxCell id="xRXLO3KBdeDJqQUkD2Ri-38" value="No" style="edgeLabel;html=1;align=center;verticalAlign=middle;resizable=0;points=[];" parent="xRXLO3KBdeDJqQUkD2Ri-37" vertex="1" connectable="0">
          <mxGeometry x="-0.7811" y="3" relative="1" as="geometry">
            <mxPoint x="-1" as="offset" />
          </mxGeometry>
        </mxCell>
        <mxCell id="xRXLO3KBdeDJqQUkD2Ri-39" value="" style="endArrow=classic;html=1;rounded=0;entryX=0;entryY=0.5;entryDx=0;entryDy=0;" parent="WIyWlLk6GJQsqaUBKTNV-1" source="xRXLO3KBdeDJqQUkD2Ri-35" target="xRXLO3KBdeDJqQUkD2Ri-40" edge="1">
          <mxGeometry width="50" height="50" relative="1" as="geometry">
            <mxPoint x="-2135" y="-85" as="sourcePoint" />
            <mxPoint x="-2064.289321881345" y="-135" as="targetPoint" />
          </mxGeometry>
        </mxCell>
        <mxCell id="xRXLO3KBdeDJqQUkD2Ri-40" value="&quot;Input New&lt;br&gt;Password&quot;" style="shape=parallelogram;perimeter=parallelogramPerimeter;whiteSpace=wrap;html=1;fixedSize=1;" parent="WIyWlLk6GJQsqaUBKTNV-1" vertex="1">
          <mxGeometry x="-2080" y="-150" width="120" height="60" as="geometry" />
        </mxCell>
        <mxCell id="xRXLO3KBdeDJqQUkD2Ri-41" value="" style="endArrow=classic;html=1;rounded=0;exitX=1;exitY=0.5;exitDx=0;exitDy=0;entryX=0;entryY=0.25;entryDx=0;entryDy=0;" parent="WIyWlLk6GJQsqaUBKTNV-1" source="xRXLO3KBdeDJqQUkD2Ri-40" target="6m6GTqiiXeicWxR2e0hD-28" edge="1">
          <mxGeometry width="50" height="50" relative="1" as="geometry">
            <mxPoint x="-1920" y="-100" as="sourcePoint" />
            <mxPoint x="-1870" y="-150" as="targetPoint" />
          </mxGeometry>
        </mxCell>
        <mxCell id="2UY-sJIpxK0MTHKXZ6Qm-0" value="" style="endArrow=classic;html=1;rounded=0;exitX=0.451;exitY=1.014;exitDx=0;exitDy=0;exitPerimeter=0;entryX=0.5;entryY=1;entryDx=0;entryDy=0;" parent="WIyWlLk6GJQsqaUBKTNV-1" source="6m6GTqiiXeicWxR2e0hD-80" target="DESI46E0uTid8_R05JpZ-0" edge="1">
          <mxGeometry width="50" height="50" relative="1" as="geometry">
            <mxPoint x="-965" y="510" as="sourcePoint" />
            <mxPoint x="-240" y="-390" as="targetPoint" />
            <Array as="points">
              <mxPoint x="-960" y="560" />
              <mxPoint x="-960" y="600" />
              <mxPoint x="-240" y="600" />
              <mxPoint x="-240" y="110" />
            </Array>
          </mxGeometry>
        </mxCell>
        <mxCell id="DESI46E0uTid8_R05JpZ-0" value="Homepage" style="rounded=1;whiteSpace=wrap;html=1;" vertex="1" parent="WIyWlLk6GJQsqaUBKTNV-1">
          <mxGeometry x="-300" y="-460" width="120" height="60" as="geometry" />
        </mxCell>
        <mxCell id="DESI46E0uTid8_R05JpZ-1" value="" style="endArrow=classic;html=1;rounded=0;exitX=1;exitY=0.5;exitDx=0;exitDy=0;entryX=0;entryY=0.5;entryDx=0;entryDy=0;" edge="1" parent="WIyWlLk6GJQsqaUBKTNV-1" source="DESI46E0uTid8_R05JpZ-0" target="DESI46E0uTid8_R05JpZ-2">
          <mxGeometry width="50" height="50" relative="1" as="geometry">
            <mxPoint x="-140" y="-430" as="sourcePoint" />
            <mxPoint x="-90" y="-430" as="targetPoint" />
          </mxGeometry>
        </mxCell>
        <mxCell id="DESI46E0uTid8_R05JpZ-2" value="Search&lt;br&gt;Food&lt;br&gt;Recipe?" style="rhombus;whiteSpace=wrap;html=1;" vertex="1" parent="WIyWlLk6GJQsqaUBKTNV-1">
          <mxGeometry x="-80" y="-470" width="80" height="80" as="geometry" />
        </mxCell>
        <mxCell id="DESI46E0uTid8_R05JpZ-4" value="" style="endArrow=classic;html=1;rounded=0;exitX=1;exitY=0.5;exitDx=0;exitDy=0;entryX=0;entryY=0.5;entryDx=0;entryDy=0;" edge="1" parent="WIyWlLk6GJQsqaUBKTNV-1" source="DESI46E0uTid8_R05JpZ-2" target="DESI46E0uTid8_R05JpZ-5">
          <mxGeometry width="50" height="50" relative="1" as="geometry">
            <mxPoint y="-390" as="sourcePoint" />
            <mxPoint x="40" y="-430" as="targetPoint" />
          </mxGeometry>
        </mxCell>
        <mxCell id="DESI46E0uTid8_R05JpZ-6" value="No" style="edgeLabel;html=1;align=center;verticalAlign=middle;resizable=0;points=[];" vertex="1" connectable="0" parent="DESI46E0uTid8_R05JpZ-4">
          <mxGeometry x="0.0807" y="5" relative="1" as="geometry">
            <mxPoint as="offset" />
          </mxGeometry>
        </mxCell>
        <mxCell id="DESI46E0uTid8_R05JpZ-5" value="View Popular&lt;br&gt;food recipes" style="rhombus;whiteSpace=wrap;html=1;" vertex="1" parent="WIyWlLk6GJQsqaUBKTNV-1">
          <mxGeometry x="50" y="-470" width="110" height="80" as="geometry" />
        </mxCell>
        <mxCell id="DESI46E0uTid8_R05JpZ-7" value="" style="endArrow=classic;html=1;rounded=0;exitX=1;exitY=0.5;exitDx=0;exitDy=0;entryX=0;entryY=0.5;entryDx=0;entryDy=0;" edge="1" parent="WIyWlLk6GJQsqaUBKTNV-1" source="DESI46E0uTid8_R05JpZ-5" target="DESI46E0uTid8_R05JpZ-9">
          <mxGeometry width="50" height="50" relative="1" as="geometry">
            <mxPoint x="170" y="-420" as="sourcePoint" />
            <mxPoint x="210" y="-430" as="targetPoint" />
          </mxGeometry>
        </mxCell>
        <mxCell id="DESI46E0uTid8_R05JpZ-8" value="No" style="edgeLabel;html=1;align=center;verticalAlign=middle;resizable=0;points=[];" vertex="1" connectable="0" parent="DESI46E0uTid8_R05JpZ-7">
          <mxGeometry x="-0.3121" y="-2" relative="1" as="geometry">
            <mxPoint as="offset" />
          </mxGeometry>
        </mxCell>
        <mxCell id="DESI46E0uTid8_R05JpZ-9" value="Add Recipe" style="rhombus;whiteSpace=wrap;html=1;" vertex="1" parent="WIyWlLk6GJQsqaUBKTNV-1">
          <mxGeometry x="210" y="-470" width="80" height="80" as="geometry" />
        </mxCell>
        <mxCell id="DESI46E0uTid8_R05JpZ-10" value="" style="endArrow=classic;html=1;rounded=0;exitX=1;exitY=0.5;exitDx=0;exitDy=0;entryX=0;entryY=0.5;entryDx=0;entryDy=0;" edge="1" parent="WIyWlLk6GJQsqaUBKTNV-1" source="DESI46E0uTid8_R05JpZ-9" target="DESI46E0uTid8_R05JpZ-12">
          <mxGeometry width="50" height="50" relative="1" as="geometry">
            <mxPoint x="310" y="-430" as="sourcePoint" />
            <mxPoint x="340" y="-430" as="targetPoint" />
          </mxGeometry>
        </mxCell>
        <mxCell id="DESI46E0uTid8_R05JpZ-11" value="No" style="edgeLabel;html=1;align=center;verticalAlign=middle;resizable=0;points=[];" vertex="1" connectable="0" parent="DESI46E0uTid8_R05JpZ-10">
          <mxGeometry x="-0.2375" y="-4" relative="1" as="geometry">
            <mxPoint as="offset" />
          </mxGeometry>
        </mxCell>
        <mxCell id="DESI46E0uTid8_R05JpZ-12" value="View Profile?" style="rhombus;whiteSpace=wrap;html=1;" vertex="1" parent="WIyWlLk6GJQsqaUBKTNV-1">
          <mxGeometry x="350" y="-470" width="80" height="80" as="geometry" />
        </mxCell>
        <mxCell id="DESI46E0uTid8_R05JpZ-13" value="" style="endArrow=classic;html=1;rounded=0;exitX=0.5;exitY=0;exitDx=0;exitDy=0;entryX=0.5;entryY=0;entryDx=0;entryDy=0;" edge="1" parent="WIyWlLk6GJQsqaUBKTNV-1" source="DESI46E0uTid8_R05JpZ-12" target="DESI46E0uTid8_R05JpZ-0">
          <mxGeometry width="50" height="50" relative="1" as="geometry">
            <mxPoint x="380" y="-500" as="sourcePoint" />
            <mxPoint x="-240" y="-520" as="targetPoint" />
            <Array as="points">
              <mxPoint x="390" y="-520" />
              <mxPoint x="70" y="-520" />
              <mxPoint x="-240" y="-520" />
            </Array>
          </mxGeometry>
        </mxCell>
        <mxCell id="DESI46E0uTid8_R05JpZ-14" value="No" style="edgeLabel;html=1;align=center;verticalAlign=middle;resizable=0;points=[];" vertex="1" connectable="0" parent="DESI46E0uTid8_R05JpZ-13">
          <mxGeometry x="-0.9405" relative="1" as="geometry">
            <mxPoint y="-1" as="offset" />
          </mxGeometry>
        </mxCell>
        <mxCell id="DESI46E0uTid8_R05JpZ-15" value="" style="endArrow=classic;html=1;rounded=0;exitX=0.5;exitY=1;exitDx=0;exitDy=0;entryX=0.5;entryY=0;entryDx=0;entryDy=0;" edge="1" parent="WIyWlLk6GJQsqaUBKTNV-1" source="DESI46E0uTid8_R05JpZ-2" target="DESI46E0uTid8_R05JpZ-24">
          <mxGeometry width="50" height="50" relative="1" as="geometry">
            <mxPoint x="-30" y="-340" as="sourcePoint" />
            <mxPoint x="-40" y="-340" as="targetPoint" />
          </mxGeometry>
        </mxCell>
        <mxCell id="DESI46E0uTid8_R05JpZ-16" value="Yes" style="edgeLabel;html=1;align=center;verticalAlign=middle;resizable=0;points=[];" vertex="1" connectable="0" parent="DESI46E0uTid8_R05JpZ-15">
          <mxGeometry x="-0.0523" y="1" relative="1" as="geometry">
            <mxPoint y="-1" as="offset" />
          </mxGeometry>
        </mxCell>
        <mxCell id="DESI46E0uTid8_R05JpZ-17" value="" style="endArrow=classic;html=1;rounded=0;exitX=0.5;exitY=1;exitDx=0;exitDy=0;" edge="1" parent="WIyWlLk6GJQsqaUBKTNV-1" source="DESI46E0uTid8_R05JpZ-5" target="DESI46E0uTid8_R05JpZ-25">
          <mxGeometry width="50" height="50" relative="1" as="geometry">
            <mxPoint x="120" y="-350" as="sourcePoint" />
            <mxPoint x="105" y="-340" as="targetPoint" />
          </mxGeometry>
        </mxCell>
        <mxCell id="DESI46E0uTid8_R05JpZ-20" value="Yes" style="edgeLabel;html=1;align=center;verticalAlign=middle;resizable=0;points=[];" vertex="1" connectable="0" parent="DESI46E0uTid8_R05JpZ-17">
          <mxGeometry x="0.0048" y="-3" relative="1" as="geometry">
            <mxPoint y="-1" as="offset" />
          </mxGeometry>
        </mxCell>
        <mxCell id="DESI46E0uTid8_R05JpZ-18" value="" style="endArrow=classic;html=1;rounded=0;exitX=0.5;exitY=1;exitDx=0;exitDy=0;entryX=0.5;entryY=0;entryDx=0;entryDy=0;" edge="1" parent="WIyWlLk6GJQsqaUBKTNV-1" source="DESI46E0uTid8_R05JpZ-9" target="DESI46E0uTid8_R05JpZ-29">
          <mxGeometry width="50" height="50" relative="1" as="geometry">
            <mxPoint x="115" y="-380" as="sourcePoint" />
            <mxPoint x="250" y="-340" as="targetPoint" />
          </mxGeometry>
        </mxCell>
        <mxCell id="DESI46E0uTid8_R05JpZ-21" value="Yes" style="edgeLabel;html=1;align=center;verticalAlign=middle;resizable=0;points=[];" vertex="1" connectable="0" parent="DESI46E0uTid8_R05JpZ-18">
          <mxGeometry x="0.1191" relative="1" as="geometry">
            <mxPoint y="-1" as="offset" />
          </mxGeometry>
        </mxCell>
        <mxCell id="DESI46E0uTid8_R05JpZ-22" value="" style="endArrow=classic;html=1;rounded=0;exitX=0.5;exitY=1;exitDx=0;exitDy=0;entryX=0.5;entryY=0;entryDx=0;entryDy=0;" edge="1" parent="WIyWlLk6GJQsqaUBKTNV-1" source="DESI46E0uTid8_R05JpZ-12" target="DESI46E0uTid8_R05JpZ-30">
          <mxGeometry width="50" height="50" relative="1" as="geometry">
            <mxPoint x="260" y="-380" as="sourcePoint" />
            <mxPoint x="390" y="-340" as="targetPoint" />
            <Array as="points">
              <mxPoint x="390" y="-360" />
            </Array>
          </mxGeometry>
        </mxCell>
        <mxCell id="DESI46E0uTid8_R05JpZ-23" value="Yes" style="edgeLabel;html=1;align=center;verticalAlign=middle;resizable=0;points=[];" vertex="1" connectable="0" parent="DESI46E0uTid8_R05JpZ-22">
          <mxGeometry x="0.1191" relative="1" as="geometry">
            <mxPoint y="-1" as="offset" />
          </mxGeometry>
        </mxCell>
        <mxCell id="DESI46E0uTid8_R05JpZ-24" value="search the food that&lt;br&gt;you want" style="rounded=1;whiteSpace=wrap;html=1;" vertex="1" parent="WIyWlLk6GJQsqaUBKTNV-1">
          <mxGeometry x="-100" y="-320" width="120" height="40" as="geometry" />
        </mxCell>
        <mxCell id="DESI46E0uTid8_R05JpZ-25" value="select the recipe that&lt;br&gt;you want" style="rounded=1;whiteSpace=wrap;html=1;" vertex="1" parent="WIyWlLk6GJQsqaUBKTNV-1">
          <mxGeometry x="45" y="-320" width="120" height="40" as="geometry" />
        </mxCell>
        <mxCell id="DESI46E0uTid8_R05JpZ-29" value="input photo, title,&lt;br&gt;ingredients, video" style="rounded=1;whiteSpace=wrap;html=1;" vertex="1" parent="WIyWlLk6GJQsqaUBKTNV-1">
          <mxGeometry x="190" y="-320" width="120" height="40" as="geometry" />
        </mxCell>
        <mxCell id="DESI46E0uTid8_R05JpZ-30" value="See my recipe?" style="rhombus;whiteSpace=wrap;html=1;" vertex="1" parent="WIyWlLk6GJQsqaUBKTNV-1">
          <mxGeometry x="340" y="-320" width="100" height="80" as="geometry" />
        </mxCell>
        <mxCell id="DESI46E0uTid8_R05JpZ-31" value="See saved&lt;br&gt;recipe?" style="rhombus;whiteSpace=wrap;html=1;" vertex="1" parent="WIyWlLk6GJQsqaUBKTNV-1">
          <mxGeometry x="350" y="-200" width="80" height="80" as="geometry" />
        </mxCell>
        <mxCell id="DESI46E0uTid8_R05JpZ-32" value="" style="endArrow=classic;html=1;rounded=0;exitX=0.5;exitY=1;exitDx=0;exitDy=0;entryX=0.5;entryY=0;entryDx=0;entryDy=0;" edge="1" parent="WIyWlLk6GJQsqaUBKTNV-1" source="DESI46E0uTid8_R05JpZ-30" target="DESI46E0uTid8_R05JpZ-31">
          <mxGeometry width="50" height="50" relative="1" as="geometry">
            <mxPoint x="410" y="-210" as="sourcePoint" />
            <mxPoint x="460" y="-260" as="targetPoint" />
          </mxGeometry>
        </mxCell>
        <mxCell id="DESI46E0uTid8_R05JpZ-33" value="No" style="edgeLabel;html=1;align=center;verticalAlign=middle;resizable=0;points=[];" vertex="1" connectable="0" parent="DESI46E0uTid8_R05JpZ-32">
          <mxGeometry x="-0.4523" y="-3" relative="1" as="geometry">
            <mxPoint y="-1" as="offset" />
          </mxGeometry>
        </mxCell>
        <mxCell id="DESI46E0uTid8_R05JpZ-34" value="See liked&lt;br&gt;recipe?" style="rhombus;whiteSpace=wrap;html=1;" vertex="1" parent="WIyWlLk6GJQsqaUBKTNV-1">
          <mxGeometry x="350" y="-80" width="80" height="80" as="geometry" />
        </mxCell>
        <mxCell id="DESI46E0uTid8_R05JpZ-35" value="" style="endArrow=classic;html=1;rounded=0;exitX=0.5;exitY=1;exitDx=0;exitDy=0;entryX=0.5;entryY=0;entryDx=0;entryDy=0;" edge="1" parent="WIyWlLk6GJQsqaUBKTNV-1" source="DESI46E0uTid8_R05JpZ-31" target="DESI46E0uTid8_R05JpZ-34">
          <mxGeometry width="50" height="50" relative="1" as="geometry">
            <mxPoint x="420" y="-90" as="sourcePoint" />
            <mxPoint x="470" y="-140" as="targetPoint" />
          </mxGeometry>
        </mxCell>
        <mxCell id="DESI46E0uTid8_R05JpZ-36" value="No" style="edgeLabel;html=1;align=center;verticalAlign=middle;resizable=0;points=[];" vertex="1" connectable="0" parent="DESI46E0uTid8_R05JpZ-35">
          <mxGeometry x="-0.4508" y="-3" relative="1" as="geometry">
            <mxPoint as="offset" />
          </mxGeometry>
        </mxCell>
        <mxCell id="DESI46E0uTid8_R05JpZ-37" value="" style="endArrow=classic;html=1;rounded=0;exitX=1;exitY=0.5;exitDx=0;exitDy=0;entryX=0;entryY=0.5;entryDx=0;entryDy=0;" edge="1" parent="WIyWlLk6GJQsqaUBKTNV-1" source="DESI46E0uTid8_R05JpZ-30" target="DESI46E0uTid8_R05JpZ-39">
          <mxGeometry width="50" height="50" relative="1" as="geometry">
            <mxPoint x="490" y="-280" as="sourcePoint" />
            <mxPoint x="520" y="-280" as="targetPoint" />
          </mxGeometry>
        </mxCell>
        <mxCell id="DESI46E0uTid8_R05JpZ-38" value="Yes" style="edgeLabel;html=1;align=center;verticalAlign=middle;resizable=0;points=[];" vertex="1" connectable="0" parent="DESI46E0uTid8_R05JpZ-37">
          <mxGeometry x="-0.1642" y="-1" relative="1" as="geometry">
            <mxPoint x="1" as="offset" />
          </mxGeometry>
        </mxCell>
        <mxCell id="DESI46E0uTid8_R05JpZ-39" value="Show the list of&lt;br&gt;&quot;My Recipe&quot;" style="rounded=1;whiteSpace=wrap;html=1;" vertex="1" parent="WIyWlLk6GJQsqaUBKTNV-1">
          <mxGeometry x="490" y="-300" width="120" height="40" as="geometry" />
        </mxCell>
        <mxCell id="DESI46E0uTid8_R05JpZ-40" value="" style="endArrow=classic;html=1;rounded=0;exitX=1;exitY=0.5;exitDx=0;exitDy=0;entryX=0;entryY=0.5;entryDx=0;entryDy=0;" edge="1" parent="WIyWlLk6GJQsqaUBKTNV-1" source="DESI46E0uTid8_R05JpZ-31" target="DESI46E0uTid8_R05JpZ-41">
          <mxGeometry width="50" height="50" relative="1" as="geometry">
            <mxPoint x="460" y="-150" as="sourcePoint" />
            <mxPoint x="490" y="-160" as="targetPoint" />
          </mxGeometry>
        </mxCell>
        <mxCell id="DESI46E0uTid8_R05JpZ-44" value="Yes" style="edgeLabel;html=1;align=center;verticalAlign=middle;resizable=0;points=[];" vertex="1" connectable="0" parent="DESI46E0uTid8_R05JpZ-40">
          <mxGeometry x="-0.0285" y="-2" relative="1" as="geometry">
            <mxPoint x="1" as="offset" />
          </mxGeometry>
        </mxCell>
        <mxCell id="DESI46E0uTid8_R05JpZ-41" value="Show the list of&lt;br&gt;&quot;Saved Recipe&quot;" style="rounded=1;whiteSpace=wrap;html=1;" vertex="1" parent="WIyWlLk6GJQsqaUBKTNV-1">
          <mxGeometry x="490" y="-180" width="120" height="40" as="geometry" />
        </mxCell>
        <mxCell id="DESI46E0uTid8_R05JpZ-42" value="" style="endArrow=classic;html=1;rounded=0;exitX=1;exitY=0.5;exitDx=0;exitDy=0;entryX=0;entryY=0.5;entryDx=0;entryDy=0;" edge="1" parent="WIyWlLk6GJQsqaUBKTNV-1" source="DESI46E0uTid8_R05JpZ-34" target="DESI46E0uTid8_R05JpZ-43">
          <mxGeometry width="50" height="50" relative="1" as="geometry">
            <mxPoint x="460" y="-30" as="sourcePoint" />
            <mxPoint x="490" y="-40" as="targetPoint" />
          </mxGeometry>
        </mxCell>
        <mxCell id="DESI46E0uTid8_R05JpZ-45" value="Yes" style="edgeLabel;html=1;align=center;verticalAlign=middle;resizable=0;points=[];" vertex="1" connectable="0" parent="DESI46E0uTid8_R05JpZ-42">
          <mxGeometry x="-0.0285" y="2" relative="1" as="geometry">
            <mxPoint x="1" as="offset" />
          </mxGeometry>
        </mxCell>
        <mxCell id="DESI46E0uTid8_R05JpZ-43" value="Show the list of&lt;br&gt;&quot;Liked Recipe&quot;" style="rounded=1;whiteSpace=wrap;html=1;" vertex="1" parent="WIyWlLk6GJQsqaUBKTNV-1">
          <mxGeometry x="490" y="-60" width="120" height="40" as="geometry" />
        </mxCell>
        <mxCell id="DESI46E0uTid8_R05JpZ-46" value="" style="endArrow=classic;html=1;rounded=0;exitX=1;exitY=0.5;exitDx=0;exitDy=0;entryX=0;entryY=0.5;entryDx=0;entryDy=0;" edge="1" parent="WIyWlLk6GJQsqaUBKTNV-1" source="DESI46E0uTid8_R05JpZ-41" target="DESI46E0uTid8_R05JpZ-47">
          <mxGeometry width="50" height="50" relative="1" as="geometry">
            <mxPoint x="650" y="-160" as="sourcePoint" />
            <mxPoint x="670" y="-160" as="targetPoint" />
          </mxGeometry>
        </mxCell>
        <mxCell id="DESI46E0uTid8_R05JpZ-47" value="Select the recipe that&lt;br&gt;you want" style="rounded=1;whiteSpace=wrap;html=1;" vertex="1" parent="WIyWlLk6GJQsqaUBKTNV-1">
          <mxGeometry x="680" y="-180" width="120" height="40" as="geometry" />
        </mxCell>
        <mxCell id="DESI46E0uTid8_R05JpZ-48" value="" style="endArrow=classic;html=1;rounded=0;exitX=1;exitY=0.5;exitDx=0;exitDy=0;entryX=0.5;entryY=1;entryDx=0;entryDy=0;" edge="1" parent="WIyWlLk6GJQsqaUBKTNV-1" source="DESI46E0uTid8_R05JpZ-43" target="DESI46E0uTid8_R05JpZ-47">
          <mxGeometry width="50" height="50" relative="1" as="geometry">
            <mxPoint x="680" y="-30" as="sourcePoint" />
            <mxPoint x="730" y="-80" as="targetPoint" />
            <Array as="points">
              <mxPoint x="740" y="-40" />
            </Array>
          </mxGeometry>
        </mxCell>
        <mxCell id="DESI46E0uTid8_R05JpZ-49" value="" style="endArrow=classic;html=1;rounded=0;exitX=1;exitY=0.5;exitDx=0;exitDy=0;entryX=0.5;entryY=0;entryDx=0;entryDy=0;" edge="1" parent="WIyWlLk6GJQsqaUBKTNV-1" source="DESI46E0uTid8_R05JpZ-39" target="DESI46E0uTid8_R05JpZ-47">
          <mxGeometry width="50" height="50" relative="1" as="geometry">
            <mxPoint x="710" y="-250" as="sourcePoint" />
            <mxPoint x="760" y="-300" as="targetPoint" />
            <Array as="points">
              <mxPoint x="740" y="-280" />
            </Array>
          </mxGeometry>
        </mxCell>
        <mxCell id="DESI46E0uTid8_R05JpZ-50" value="Submit recipe" style="rounded=1;whiteSpace=wrap;html=1;" vertex="1" parent="WIyWlLk6GJQsqaUBKTNV-1">
          <mxGeometry x="190" y="-240" width="120" height="40" as="geometry" />
        </mxCell>
        <mxCell id="DESI46E0uTid8_R05JpZ-53" value="" style="endArrow=classic;html=1;rounded=0;exitX=0.5;exitY=1;exitDx=0;exitDy=0;entryX=0.5;entryY=0;entryDx=0;entryDy=0;" edge="1" parent="WIyWlLk6GJQsqaUBKTNV-1" source="DESI46E0uTid8_R05JpZ-29" target="DESI46E0uTid8_R05JpZ-50">
          <mxGeometry width="50" height="50" relative="1" as="geometry">
            <mxPoint x="290" y="-220" as="sourcePoint" />
            <mxPoint x="340" y="-270" as="targetPoint" />
          </mxGeometry>
        </mxCell>
        <mxCell id="DESI46E0uTid8_R05JpZ-54" value="" style="endArrow=classic;html=1;rounded=0;exitX=0.5;exitY=1;exitDx=0;exitDy=0;entryX=0.5;entryY=0;entryDx=0;entryDy=0;" edge="1" parent="WIyWlLk6GJQsqaUBKTNV-1" source="DESI46E0uTid8_R05JpZ-50" target="DESI46E0uTid8_R05JpZ-55">
          <mxGeometry width="50" height="50" relative="1" as="geometry">
            <mxPoint x="260" y="-140" as="sourcePoint" />
            <mxPoint x="250" y="-160" as="targetPoint" />
          </mxGeometry>
        </mxCell>
        <mxCell id="DESI46E0uTid8_R05JpZ-55" value="Recipe published" style="rounded=1;whiteSpace=wrap;html=1;" vertex="1" parent="WIyWlLk6GJQsqaUBKTNV-1">
          <mxGeometry x="190" y="-160" width="120" height="40" as="geometry" />
        </mxCell>
        <mxCell id="DESI46E0uTid8_R05JpZ-57" value="Save the recipe to&lt;br&gt;the &quot;My Recipe" style="rounded=1;whiteSpace=wrap;html=1;" vertex="1" parent="WIyWlLk6GJQsqaUBKTNV-1">
          <mxGeometry x="190" y="-80" width="120" height="40" as="geometry" />
        </mxCell>
        <mxCell id="DESI46E0uTid8_R05JpZ-58" value="" style="endArrow=classic;html=1;rounded=0;exitX=0.5;exitY=1;exitDx=0;exitDy=0;entryX=0.5;entryY=0;entryDx=0;entryDy=0;" edge="1" parent="WIyWlLk6GJQsqaUBKTNV-1" source="DESI46E0uTid8_R05JpZ-55" target="DESI46E0uTid8_R05JpZ-57">
          <mxGeometry width="50" height="50" relative="1" as="geometry">
            <mxPoint x="310" y="-90" as="sourcePoint" />
            <mxPoint x="360" y="-140" as="targetPoint" />
          </mxGeometry>
        </mxCell>
        <mxCell id="DESI46E0uTid8_R05JpZ-59" value="Display recipe details" style="rounded=1;whiteSpace=wrap;html=1;" vertex="1" parent="WIyWlLk6GJQsqaUBKTNV-1">
          <mxGeometry x="-50" y="-160" width="120" height="40" as="geometry" />
        </mxCell>
        <mxCell id="DESI46E0uTid8_R05JpZ-60" value="" style="endArrow=classic;html=1;rounded=0;exitX=0.5;exitY=1;exitDx=0;exitDy=0;entryX=0.425;entryY=-0.054;entryDx=0;entryDy=0;entryPerimeter=0;" edge="1" parent="WIyWlLk6GJQsqaUBKTNV-1" source="DESI46E0uTid8_R05JpZ-24" target="DESI46E0uTid8_R05JpZ-59">
          <mxGeometry width="50" height="50" relative="1" as="geometry">
            <mxPoint x="-10" y="-220" as="sourcePoint" />
            <mxPoint x="40" y="-270" as="targetPoint" />
          </mxGeometry>
        </mxCell>
        <mxCell id="DESI46E0uTid8_R05JpZ-61" value="" style="endArrow=classic;html=1;rounded=0;exitX=0.5;exitY=1;exitDx=0;exitDy=0;entryX=0.63;entryY=-0.009;entryDx=0;entryDy=0;entryPerimeter=0;" edge="1" parent="WIyWlLk6GJQsqaUBKTNV-1" source="DESI46E0uTid8_R05JpZ-25" target="DESI46E0uTid8_R05JpZ-59">
          <mxGeometry width="50" height="50" relative="1" as="geometry">
            <mxPoint x="80" y="-220" as="sourcePoint" />
            <mxPoint x="130" y="-270" as="targetPoint" />
          </mxGeometry>
        </mxCell>
        <mxCell id="DESI46E0uTid8_R05JpZ-62" value="" style="endArrow=classic;html=1;rounded=0;exitX=0.5;exitY=1;exitDx=0;exitDy=0;entryX=0.5;entryY=0;entryDx=0;entryDy=0;" edge="1" parent="WIyWlLk6GJQsqaUBKTNV-1" source="DESI46E0uTid8_R05JpZ-59" target="DESI46E0uTid8_R05JpZ-63">
          <mxGeometry width="50" height="50" relative="1" as="geometry">
            <mxPoint x="10" y="-50" as="sourcePoint" />
            <mxPoint x="10" y="-80" as="targetPoint" />
          </mxGeometry>
        </mxCell>
        <mxCell id="DESI46E0uTid8_R05JpZ-63" value="See steps?" style="rhombus;whiteSpace=wrap;html=1;" vertex="1" parent="WIyWlLk6GJQsqaUBKTNV-1">
          <mxGeometry x="-30" y="-80" width="80" height="80" as="geometry" />
        </mxCell>
        <mxCell id="DESI46E0uTid8_R05JpZ-64" value="" style="endArrow=classic;html=1;rounded=0;exitX=0.5;exitY=1;exitDx=0;exitDy=0;entryX=0.5;entryY=0;entryDx=0;entryDy=0;" edge="1" parent="WIyWlLk6GJQsqaUBKTNV-1" source="DESI46E0uTid8_R05JpZ-63" target="DESI46E0uTid8_R05JpZ-65">
          <mxGeometry width="50" height="50" relative="1" as="geometry">
            <mxPoint x="20" y="40" as="sourcePoint" />
            <mxPoint x="10" y="30" as="targetPoint" />
          </mxGeometry>
        </mxCell>
        <mxCell id="DESI46E0uTid8_R05JpZ-66" value="No" style="edgeLabel;html=1;align=center;verticalAlign=middle;resizable=0;points=[];" vertex="1" connectable="0" parent="DESI46E0uTid8_R05JpZ-64">
          <mxGeometry x="-0.2779" y="2" relative="1" as="geometry">
            <mxPoint as="offset" />
          </mxGeometry>
        </mxCell>
        <mxCell id="DESI46E0uTid8_R05JpZ-65" value="Save this&lt;br&gt;recipe?" style="rhombus;whiteSpace=wrap;html=1;" vertex="1" parent="WIyWlLk6GJQsqaUBKTNV-1">
          <mxGeometry x="-30" y="40" width="80" height="80" as="geometry" />
        </mxCell>
        <mxCell id="DESI46E0uTid8_R05JpZ-67" value="" style="endArrow=classic;html=1;rounded=0;exitX=0.5;exitY=1;exitDx=0;exitDy=0;entryX=0.5;entryY=0;entryDx=0;entryDy=0;" edge="1" parent="WIyWlLk6GJQsqaUBKTNV-1" source="DESI46E0uTid8_R05JpZ-65" target="DESI46E0uTid8_R05JpZ-69">
          <mxGeometry width="50" height="50" relative="1" as="geometry">
            <mxPoint x="30" y="170" as="sourcePoint" />
            <mxPoint x="10" y="150" as="targetPoint" />
          </mxGeometry>
        </mxCell>
        <mxCell id="DESI46E0uTid8_R05JpZ-68" value="No" style="edgeLabel;html=1;align=center;verticalAlign=middle;resizable=0;points=[];" vertex="1" connectable="0" parent="DESI46E0uTid8_R05JpZ-67">
          <mxGeometry x="-0.1037" y="3" relative="1" as="geometry">
            <mxPoint as="offset" />
          </mxGeometry>
        </mxCell>
        <mxCell id="DESI46E0uTid8_R05JpZ-69" value="Like this&amp;nbsp;&lt;br&gt;recipe?" style="rhombus;whiteSpace=wrap;html=1;" vertex="1" parent="WIyWlLk6GJQsqaUBKTNV-1">
          <mxGeometry x="-30" y="160" width="80" height="80" as="geometry" />
        </mxCell>
        <mxCell id="DESI46E0uTid8_R05JpZ-70" value="" style="endArrow=classic;html=1;rounded=0;exitX=1;exitY=0.5;exitDx=0;exitDy=0;entryX=1;entryY=0.5;entryDx=0;entryDy=0;" edge="1" parent="WIyWlLk6GJQsqaUBKTNV-1" source="DESI46E0uTid8_R05JpZ-69" target="DESI46E0uTid8_R05JpZ-59">
          <mxGeometry width="50" height="50" relative="1" as="geometry">
            <mxPoint x="100" y="190" as="sourcePoint" />
            <mxPoint x="150" y="140" as="targetPoint" />
            <Array as="points">
              <mxPoint x="120" y="200" />
              <mxPoint x="120" y="-140" />
            </Array>
          </mxGeometry>
        </mxCell>
        <mxCell id="DESI46E0uTid8_R05JpZ-71" value="No" style="edgeLabel;html=1;align=center;verticalAlign=middle;resizable=0;points=[];" vertex="1" connectable="0" parent="DESI46E0uTid8_R05JpZ-70">
          <mxGeometry x="-0.8744" y="2" relative="1" as="geometry">
            <mxPoint as="offset" />
          </mxGeometry>
        </mxCell>
        <mxCell id="DESI46E0uTid8_R05JpZ-72" value="" style="endArrow=classic;html=1;rounded=0;exitX=0;exitY=0.5;exitDx=0;exitDy=0;entryX=1;entryY=0.5;entryDx=0;entryDy=0;" edge="1" parent="WIyWlLk6GJQsqaUBKTNV-1" source="DESI46E0uTid8_R05JpZ-63" target="DESI46E0uTid8_R05JpZ-75">
          <mxGeometry width="50" height="50" relative="1" as="geometry">
            <mxPoint x="-120" y="-40" as="sourcePoint" />
            <mxPoint x="-90" y="-40" as="targetPoint" />
          </mxGeometry>
        </mxCell>
        <mxCell id="DESI46E0uTid8_R05JpZ-76" value="Yes" style="edgeLabel;html=1;align=center;verticalAlign=middle;resizable=0;points=[];" vertex="1" connectable="0" parent="DESI46E0uTid8_R05JpZ-72">
          <mxGeometry x="0.18" y="-2" relative="1" as="geometry">
            <mxPoint as="offset" />
          </mxGeometry>
        </mxCell>
        <mxCell id="DESI46E0uTid8_R05JpZ-73" value="" style="endArrow=classic;html=1;rounded=0;exitX=0;exitY=0.5;exitDx=0;exitDy=0;entryX=1;entryY=0.5;entryDx=0;entryDy=0;" edge="1" parent="WIyWlLk6GJQsqaUBKTNV-1" source="DESI46E0uTid8_R05JpZ-65" target="DESI46E0uTid8_R05JpZ-77">
          <mxGeometry width="50" height="50" relative="1" as="geometry">
            <mxPoint x="-110" y="90" as="sourcePoint" />
            <mxPoint x="-90" y="80" as="targetPoint" />
          </mxGeometry>
        </mxCell>
        <mxCell id="DESI46E0uTid8_R05JpZ-79" value="Yes" style="edgeLabel;html=1;align=center;verticalAlign=middle;resizable=0;points=[];" vertex="1" connectable="0" parent="DESI46E0uTid8_R05JpZ-73">
          <mxGeometry x="-0.0062" y="4" relative="1" as="geometry">
            <mxPoint as="offset" />
          </mxGeometry>
        </mxCell>
        <mxCell id="DESI46E0uTid8_R05JpZ-74" value="" style="endArrow=classic;html=1;rounded=0;exitX=0;exitY=0.5;exitDx=0;exitDy=0;entryX=1;entryY=0.5;entryDx=0;entryDy=0;" edge="1" parent="WIyWlLk6GJQsqaUBKTNV-1" source="DESI46E0uTid8_R05JpZ-69" target="DESI46E0uTid8_R05JpZ-78">
          <mxGeometry width="50" height="50" relative="1" as="geometry">
            <mxPoint x="-120" y="210" as="sourcePoint" />
            <mxPoint x="-90" y="200" as="targetPoint" />
          </mxGeometry>
        </mxCell>
        <mxCell id="DESI46E0uTid8_R05JpZ-80" value="Yes" style="edgeLabel;html=1;align=center;verticalAlign=middle;resizable=0;points=[];" vertex="1" connectable="0" parent="DESI46E0uTid8_R05JpZ-74">
          <mxGeometry x="-0.0538" y="-2" relative="1" as="geometry">
            <mxPoint as="offset" />
          </mxGeometry>
        </mxCell>
        <mxCell id="DESI46E0uTid8_R05JpZ-75" value="Play the steps video" style="rounded=1;whiteSpace=wrap;html=1;" vertex="1" parent="WIyWlLk6GJQsqaUBKTNV-1">
          <mxGeometry x="-210" y="-60" width="120" height="40" as="geometry" />
        </mxCell>
        <mxCell id="DESI46E0uTid8_R05JpZ-77" value="Save the recipe to the&lt;br&gt;&quot;Saved Recipe&quot;" style="rounded=1;whiteSpace=wrap;html=1;" vertex="1" parent="WIyWlLk6GJQsqaUBKTNV-1">
          <mxGeometry x="-210" y="60" width="120" height="40" as="geometry" />
        </mxCell>
        <mxCell id="DESI46E0uTid8_R05JpZ-78" value="Save the recipe to the&lt;br&gt;&quot;Liked Recipe&quot;" style="rounded=1;whiteSpace=wrap;html=1;" vertex="1" parent="WIyWlLk6GJQsqaUBKTNV-1">
          <mxGeometry x="-210" y="180" width="120" height="40" as="geometry" />
        </mxCell>
        <mxCell id="DESI46E0uTid8_R05JpZ-81" value="" style="endArrow=none;html=1;rounded=0;entryX=1;entryY=0.5;entryDx=0;entryDy=0;" edge="1" parent="WIyWlLk6GJQsqaUBKTNV-1" target="DESI46E0uTid8_R05JpZ-47">
          <mxGeometry width="50" height="50" relative="1" as="geometry">
            <mxPoint x="120" y="80" as="sourcePoint" />
            <mxPoint x="880" y="-160" as="targetPoint" />
            <Array as="points">
              <mxPoint x="830" y="80" />
              <mxPoint x="830" y="-160" />
            </Array>
          </mxGeometry>
        </mxCell>
      </root>
    </mxGraphModel>
  </diagram>
</mxfile>
